<svg width="120" height="120" viewBox="0 0 120 120" fill="none" xmlns="http://www.w3.org/2000/svg">
<g clip-path="url(#clip0_7218_48584)">
<path d="M60 50.2709V47.7832C60 34.0572 76.1172 22.9189 96 22.9189V75.1352C96 88.8611 79.8828 99.9994 60 99.9994C40.1172 99.9994 24 88.8737 24 75.1352C24 61.3967 40.1172 50.2709 60 50.2709Z" fill="url(#paint0_linear_7218_48584)"/>
<path d="M60 75.1357V77.6234C47.4351 77.6234 36.3766 82.0737 29.9372 88.8117C26.1841 84.8864 24 80.1861 24 75.1357C24 61.4097 40.1172 50.2715 60 50.2715V44.8643C60 31.1383 76.1172 20 96 20V50.2715C76.1172 50.2715 60 61.3972 60 75.1357Z" fill="url(#paint1_linear_7218_48584)"/>
<path d="M24 20C43.8828 20 60 31.1258 60 44.8643V47.7835V50.2712V75.1355C60 84.3362 59.9999 85 59.9999 91C59.9998 94 60 99.9998 60 99.9998C40.1172 99.9998 24 88.874 24 75.1355V20Z" fill="url(#paint2_linear_7218_48584)"/>
</g>
<defs>
<linearGradient id="paint0_linear_7218_48584" x1="96" y1="61.4582" x2="23.9996" y2="61.4582" gradientUnits="userSpaceOnUse">
<stop stop-color="#00BAEB"/>
<stop offset="0.0536" stop-color="#07B2E4"/>
<stop offset="0.3476" stop-color="#2988C3"/>
<stop offset="0.6136" stop-color="#4269AA"/>
<stop offset="0.8401" stop-color="#51579B"/>
<stop offset="1" stop-color="#565096"/>
</linearGradient>
<linearGradient id="paint1_linear_7218_48584" x1="59.9999" y1="2.1959" x2="59.9999" y2="76.6232" gradientUnits="userSpaceOnUse">
<stop stop-color="#00BAEB"/>
<stop offset="0.0536" stop-color="#07B2E4"/>
<stop offset="0.3476" stop-color="#2988C3"/>
<stop offset="0.6136" stop-color="#4269AA"/>
<stop offset="0.8401" stop-color="#51579B"/>
<stop offset="1" stop-color="#565096"/>
</linearGradient>
<linearGradient id="paint2_linear_7218_48584" x1="50.9997" y1="-25.5927" x2="50.9997" y2="86.9694" gradientUnits="userSpaceOnUse">
<stop stop-color="#00DAC8"/>
<stop offset="1" stop-color="#00BAEB"/>
</linearGradient>
<clipPath id="clip0_7218_48584">
<rect width="72" height="80" fill="white" transform="translate(24 20)"/>
</clipPath>
</defs>
</svg>
